<svg width="34" height="34" viewBox="0 0 34 34" fill="none" xmlns="http://www.w3.org/2000/svg">
<path d="M31.1667 3.50034H28.3333V2.36701C28.3333 1.76585 28.0945 1.18932 27.6694 0.764233C27.2444 0.339151 26.6678 0.100342 26.0667 0.100342C25.4655 0.100342 24.889 0.339151 24.4639 0.764233C24.0388 1.18932 23.8 1.76585 23.8 2.36701V3.50034H19.2667V2.36701C19.2667 1.76585 19.0279 1.18932 18.6028 0.764233C18.1777 0.339151 17.6012 0.100342 17 0.100342C16.3988 0.100342 15.8223 0.339151 15.3972 0.764233C14.9721 1.18932 14.7333 1.76585 14.7333 2.36701V3.50034H10.2V2.36701C10.2 1.76585 9.96119 1.18932 9.53611 0.764233C9.11103 0.339151 8.53449 0.100342 7.93333 0.100342C7.33218 0.100342 6.75564 0.339151 6.33056 0.764233C5.90548 1.18932 5.66667 1.76585 5.66667 2.36701V3.50034H2.83333C2.08189 3.50034 1.36122 3.79885 0.829864 4.33021C0.298511 4.86156 0 5.58223 0 6.33367V29.0003C0 29.7518 0.298511 30.4725 0.829864 31.0038C1.36122 31.5352 2.08189 31.8337 2.83333 31.8337H18.7C18.8503 31.8337 18.9944 31.774 19.1007 31.6677C19.207 31.5614 19.2667 31.4173 19.2667 31.267C19.2667 31.1167 19.207 30.9726 19.1007 30.8663C18.9944 30.76 18.8503 30.7003 18.7 30.7003H2.83333C2.38288 30.699 1.95126 30.5195 1.63274 30.2009C1.31422 29.8824 1.13468 29.4508 1.13333 29.0003V11.4337H32.8667V21.067C32.8667 21.2173 32.9264 21.3614 33.0326 21.4677C33.1389 21.574 33.283 21.6337 33.4333 21.6337C33.5836 21.6337 33.7278 21.574 33.834 21.4677C33.9403 21.3614 34 21.2173 34 21.067V6.33367C34 5.58223 33.7015 4.86156 33.1701 4.33021C32.6388 3.79885 31.9181 3.50034 31.1667 3.50034ZM24.9333 2.36701C24.9333 2.06643 25.0527 1.77816 25.2653 1.56562C25.4778 1.35308 25.7661 1.23368 26.0667 1.23368C26.3672 1.23368 26.6555 1.35308 26.8681 1.56562C27.0806 1.77816 27.2 2.06643 27.2 2.36701V5.76701C27.2 6.06759 27.0806 6.35585 26.8681 6.5684C26.6555 6.78094 26.3672 6.90034 26.0667 6.90034C25.7661 6.90034 25.4778 6.78094 25.2653 6.5684C25.0527 6.35585 24.9333 6.06759 24.9333 5.76701V2.36701ZM15.8667 2.36701C15.8667 2.06643 15.9861 1.77816 16.1986 1.56562C16.4112 1.35308 16.6994 1.23368 17 1.23368C17.3006 1.23368 17.5888 1.35308 17.8014 1.56562C18.0139 1.77816 18.1333 2.06643 18.1333 2.36701V5.76701C18.1333 6.06759 18.0139 6.35585 17.8014 6.5684C17.5888 6.78094 17.3006 6.90034 17 6.90034C16.6994 6.90034 16.4112 6.78094 16.1986 6.5684C15.9861 6.35585 15.8667 6.06759 15.8667 5.76701V2.36701ZM6.8 2.36701C6.8 2.06643 6.9194 1.77816 7.13195 1.56562C7.34449 1.35308 7.63275 1.23368 7.93333 1.23368C8.23391 1.23368 8.52218 1.35308 8.73472 1.56562C8.94726 1.77816 9.06667 2.06643 9.06667 2.36701V5.76701C9.06667 6.06759 8.94726 6.35585 8.73472 6.5684C8.52218 6.78094 8.23391 6.90034 7.93333 6.90034C7.63275 6.90034 7.34449 6.78094 7.13195 6.5684C6.9194 6.35585 6.8 6.06759 6.8 5.76701V2.36701ZM32.8667 10.3003H1.13333V6.33367C1.13468 5.88322 1.31422 5.4516 1.63274 5.13308C1.95126 4.81456 2.38288 4.63502 2.83333 4.63368H5.66667V5.76701C5.66667 6.36817 5.90548 6.9447 6.33056 7.36978C6.75564 7.79487 7.33218 8.03368 7.93333 8.03368C8.53449 8.03368 9.11103 7.79487 9.53611 7.36978C9.96119 6.9447 10.2 6.36817 10.2 5.76701V4.63368H14.7333V5.76701C14.7333 6.36817 14.9721 6.9447 15.3972 7.36978C15.8223 7.79487 16.3988 8.03368 17 8.03368C17.6012 8.03368 18.1777 7.79487 18.6028 7.36978C19.0279 6.9447 19.2667 6.36817 19.2667 5.76701V4.63368H23.8V5.76701C23.8 6.36817 24.0388 6.9447 24.4639 7.36978C24.889 7.79487 25.4655 8.03368 26.0667 8.03368C26.6678 8.03368 27.2444 7.79487 27.6694 7.36978C28.0945 6.9447 28.3333 6.36817 28.3333 5.76701V4.63368H31.1667C31.6171 4.63502 32.0487 4.81456 32.3673 5.13308C32.6858 5.4516 32.8653 5.88322 32.8667 6.33367V10.3003Z" fill="white"/>
<path d="M15.8668 14.4003C15.8668 14.0997 15.7474 13.8115 15.5349 13.5989C15.3223 13.3864 15.0341 13.267 14.7335 13.267H12.4668C12.1663 13.267 11.878 13.3864 11.6654 13.5989C11.4529 13.8115 11.3335 14.0997 11.3335 14.4003V16.1003C11.3335 16.4009 11.4529 16.6891 11.6654 16.9017C11.878 17.1142 12.1663 17.2336 12.4668 17.2336H14.7335C15.0341 17.2336 15.3223 17.1142 15.5349 16.9017C15.7474 16.6891 15.8668 16.4009 15.8668 16.1003V14.4003ZM12.4668 16.1003V14.4003H14.7335V16.1003H12.4668Z" fill="white"/>
<path d="M9.06654 14.4003C9.06654 14.0997 8.94713 13.8115 8.73459 13.5989C8.52205 13.3864 8.23378 13.267 7.9332 13.267H5.66654C5.36596 13.267 5.07769 13.3864 4.86515 13.5989C4.65261 13.8115 4.5332 14.0997 4.5332 14.4003V16.1003C4.5332 16.4009 4.65261 16.6891 4.86515 16.9017C5.07769 17.1142 5.36596 17.2336 5.66654 17.2336H7.9332C8.23378 17.2336 8.52205 17.1142 8.73459 16.9017C8.94713 16.6891 9.06654 16.4009 9.06654 16.1003V14.4003ZM5.66654 16.1003V14.4003H7.9332V16.1003H5.66654Z" fill="white"/>
<path d="M28.3331 17.2336C28.6337 17.2336 28.922 17.1142 29.1345 16.9017C29.347 16.6891 29.4664 16.4009 29.4664 16.1003V14.4003C29.4664 14.0997 29.347 13.8115 29.1345 13.5989C28.922 13.3864 28.6337 13.267 28.3331 13.267H26.0664C25.7659 13.267 25.4776 13.3864 25.2651 13.5989C25.0525 13.8115 24.9331 14.0997 24.9331 14.4003V16.1003C24.9331 16.4009 25.0525 16.6891 25.2651 16.9017C25.4776 17.1142 25.7659 17.2336 26.0664 17.2336H28.3331ZM26.0664 14.4003H28.3331V16.1003H26.0664V14.4003Z" fill="white"/>
<path d="M15.8668 19.5004C15.8668 19.1998 15.7474 18.9116 15.5349 18.699C15.3223 18.4865 15.0341 18.3671 14.7335 18.3671H12.4668C12.1663 18.3671 11.878 18.4865 11.6654 18.699C11.4529 18.9116 11.3335 19.1998 11.3335 19.5004V21.2004C11.3335 21.501 11.4529 21.7892 11.6654 22.0018C11.878 22.2143 12.1663 22.3337 12.4668 22.3337H14.7335C15.0341 22.3337 15.3223 22.2143 15.5349 22.0018C15.7474 21.7892 15.8668 21.501 15.8668 21.2004V19.5004ZM12.4668 21.2004V19.5004H14.7335V21.2004H12.4668Z" fill="white"/>
<path d="M9.06654 19.5004C9.06654 19.1998 8.94713 18.9116 8.73459 18.699C8.52205 18.4865 8.23378 18.3671 7.9332 18.3671H5.66654C5.36596 18.3671 5.07769 18.4865 4.86515 18.699C4.65261 18.9116 4.5332 19.1998 4.5332 19.5004V21.2004C4.5332 21.501 4.65261 21.7892 4.86515 22.0018C5.07769 22.2143 5.36596 22.3337 5.66654 22.3337H7.9332C8.23378 22.3337 8.52205 22.2143 8.73459 22.0018C8.94713 21.7892 9.06654 21.501 9.06654 21.2004V19.5004ZM5.66654 21.2004V19.5004H7.9332V21.2004H5.66654Z" fill="white"/>
<path d="M14.7335 23.467H12.4668C12.1663 23.467 11.878 23.5864 11.6654 23.799C11.4529 24.0115 11.3335 24.2998 11.3335 24.6004V26.3004C11.3335 26.601 11.4529 26.8892 11.6654 27.1018C11.878 27.3143 12.1663 27.4337 12.4668 27.4337H14.7335C15.0341 27.4337 15.3223 27.3143 15.5349 27.1018C15.7474 26.8892 15.8668 26.601 15.8668 26.3004V24.6004C15.8668 24.2998 15.7474 24.0115 15.5349 23.799C15.3223 23.5864 15.0341 23.467 14.7335 23.467ZM12.4668 26.3004V24.6004H14.7335V26.3004H12.4668Z" fill="white"/>
<path d="M19.2666 17.2336H21.5333C21.8339 17.2336 22.1221 17.1142 22.3347 16.9017C22.5472 16.6891 22.6666 16.4009 22.6666 16.1003V14.4003C22.6666 14.0997 22.5472 13.8115 22.3347 13.5989C22.1221 13.3864 21.8339 13.267 21.5333 13.267H19.2666C18.9661 13.267 18.6778 13.3864 18.4652 13.5989C18.2527 13.8115 18.1333 14.0997 18.1333 14.4003V16.1003C18.1333 16.4009 18.2527 16.6891 18.4652 16.9017C18.6778 17.1142 18.9661 17.2336 19.2666 17.2336ZM19.2666 14.4003H21.5333V16.1003H19.2666V14.4003Z" fill="white"/>
<path d="M18.1333 21.2004C18.1333 21.501 18.2527 21.7892 18.4652 22.0018C18.6778 22.2143 18.9661 22.3337 19.2666 22.3337C19.4169 22.3337 19.5611 22.274 19.6673 22.1678C19.7736 22.0615 19.8333 21.9174 19.8333 21.7671C19.8333 21.6168 19.7736 21.4726 19.6673 21.3664C19.5611 21.2601 19.4169 21.2004 19.2666 21.2004V19.5004H21.5333C21.6836 19.5004 21.8277 19.4407 21.934 19.3344C22.0403 19.2282 22.1 19.084 22.1 18.9337C22.1 18.7834 22.0403 18.6393 21.934 18.533C21.8277 18.4268 21.6836 18.3671 21.5333 18.3671H19.2666C18.9661 18.3671 18.6778 18.4865 18.4652 18.699C18.2527 18.9116 18.1333 19.1998 18.1333 19.5004V21.2004Z" fill="white"/>
<path d="M7.9332 23.467H5.66654C5.36596 23.467 5.07769 23.5864 4.86515 23.799C4.65261 24.0115 4.5332 24.2998 4.5332 24.6004V26.3004C4.5332 26.601 4.65261 26.8892 4.86515 27.1018C5.07769 27.3143 5.36596 27.4337 5.66654 27.4337H7.9332C8.23378 27.4337 8.52205 27.3143 8.73459 27.1018C8.94713 26.8892 9.06654 26.601 9.06654 26.3004V24.6004C9.06654 24.2998 8.94713 24.0115 8.73459 23.799C8.52205 23.5864 8.23378 23.467 7.9332 23.467ZM5.66654 26.3004V24.6004H7.9332V26.3004H5.66654Z" fill="white"/>
<path d="M26.6333 18.3671C25.1763 18.3671 23.752 18.7991 22.5406 19.6086C21.3291 20.418 20.3849 21.5685 19.8274 22.9146C19.2698 24.2607 19.1239 25.7419 19.4082 27.1709C19.6924 28.5999 20.394 29.9125 21.4243 30.9428C22.4545 31.973 23.7671 32.6746 25.1961 32.9589C26.6251 33.2431 28.1063 33.0972 29.4524 32.5396C30.7985 31.9821 31.949 31.0379 32.7584 29.8264C33.5679 28.615 33.9999 27.1907 33.9999 25.7337C33.9977 23.7807 33.2208 21.9082 31.8398 20.5272C30.4588 19.1462 28.5863 18.3693 26.6333 18.3671ZM26.6333 31.9671C25.4004 31.9671 24.1953 31.6015 23.1702 30.9166C22.1452 30.2316 21.3462 29.2581 20.8744 28.1191C20.4026 26.9801 20.2792 25.7268 20.5197 24.5177C20.7602 23.3085 21.3539 22.1978 22.2256 21.3261C23.0974 20.4544 24.2081 19.8607 25.4172 19.6202C26.6264 19.3797 27.8797 19.5031 29.0187 19.9749C30.1577 20.4467 31.1312 21.2456 31.8161 22.2707C32.501 23.2957 32.8666 24.5009 32.8666 25.7337C32.8647 27.3863 32.2073 28.9707 31.0388 30.1392C29.8702 31.3078 28.2859 31.9651 26.6333 31.9671Z" fill="white"/>
<path d="M29.9077 23.3582L25.5001 27.7657L23.497 25.762C23.3901 25.6587 23.2469 25.6016 23.0984 25.6029C22.9498 25.6042 22.8077 25.6638 22.7026 25.7689C22.5975 25.8739 22.5379 26.0161 22.5366 26.1646C22.5354 26.3132 22.5925 26.4564 22.6957 26.5632L25.0995 28.9676C25.2058 29.0738 25.3499 29.1335 25.5001 29.1335C25.6504 29.1335 25.7945 29.0738 25.9008 28.9676L30.7089 24.1594C30.8121 24.0526 30.8693 23.9094 30.868 23.7608C30.8667 23.6123 30.8071 23.4701 30.702 23.3651C30.597 23.26 30.4548 23.2004 30.3063 23.1991C30.1577 23.1978 30.0145 23.2549 29.9077 23.3582Z" fill="white"/>
</svg>
