<svg width="20" height="21" viewBox="0 0 20 21" fill="none" xmlns="http://www.w3.org/2000/svg">
<g clip-path="url(#clip0_243_102)">
<path d="M5.41684 12.6004C5.25677 12.6004 5.09686 12.5395 4.9751 12.4171C4.73096 12.1729 4.73096 11.777 4.9751 11.5329L7.65851 8.84964L4.9751 6.16714C4.73096 5.92285 4.73096 5.52704 4.9751 5.2829C5.21924 5.03876 5.61505 5.03876 5.85934 5.2829L8.98434 8.4079C9.22849 8.65204 9.22849 9.04785 8.98434 9.29214L5.85934 12.4171C5.73682 12.5395 5.57675 12.6004 5.41684 12.6004Z" fill="white"/>
<path d="M13.3336 20.1004C12.4144 20.1004 11.667 19.3529 11.667 18.4337V3.43368C11.667 2.72125 12.1203 2.08542 12.7952 1.85119L17.8019 0.182035C18.9219 -0.161288 20.0003 0.669553 20.0003 1.76712V16.7671C20.0003 17.4788 19.5469 18.1137 18.8728 18.3487L13.8644 20.0188C13.6819 20.0754 13.5128 20.1004 13.3336 20.1004ZM18.3336 1.3504C18.2794 1.3504 18.2336 1.35711 18.1845 1.37207L13.1987 3.03451C13.0352 3.09128 12.917 3.25622 12.917 3.43368V18.4337C12.917 18.718 13.2252 18.9096 13.4828 18.8287L18.4686 17.1663C18.6311 17.1095 18.7503 16.9446 18.7503 16.7671V1.76712C18.7503 1.53793 18.5637 1.3504 18.3336 1.3504Z" fill="white"/>
<path d="M8.54172 9.47534H0.625C0.279999 9.47534 0 9.19534 0 8.85034C0 8.50534 0.279999 8.22534 0.625 8.22534H8.54172C8.88672 8.22534 9.16672 8.50534 9.16672 8.85034C9.16672 9.19534 8.88672 9.47534 8.54172 9.47534Z" fill="white"/>
<path d="M7.29199 4.26706C6.94699 4.26706 6.66699 3.98706 6.66699 3.64206V2.39206C6.66699 1.12787 7.69437 0.100342 8.95856 0.100342H18.3336C18.6786 0.100342 18.9586 0.380341 18.9586 0.725342C18.9586 1.07034 18.6786 1.35034 18.3336 1.35034H8.95856C8.38437 1.35034 7.91699 1.81787 7.91699 2.39206V3.64206C7.91699 3.98706 7.63699 4.26706 7.29199 4.26706Z" fill="white"/>
<path d="M12.2915 17.6003H8.95807C7.69388 17.6003 6.6665 16.5728 6.6665 15.3086V14.0586C6.6665 13.7136 6.9465 13.4336 7.2915 13.4336C7.63651 13.4336 7.9165 13.7136 7.9165 14.0586V15.3086C7.9165 15.8828 8.38388 16.3503 8.95807 16.3503H12.2915C12.6365 16.3503 12.9165 16.6303 12.9165 16.9753C12.9165 17.3203 12.6365 17.6003 12.2915 17.6003Z" fill="white"/>
</g>
<defs>
<clipPath id="clip0_243_102">
<rect width="20" height="20" fill="white" transform="translate(0 0.100342)"/>
</clipPath>
</defs>
</svg>
