<svg width="221" height="221" viewBox="0 0 221 221" fill="none" xmlns="http://www.w3.org/2000/svg">
<g clip-path="url(#clip0_1077_434)">
<path fill-rule="evenodd" clip-rule="evenodd" d="M108.165 218.22C99.934 215.7 74.2958 196.75 55.3296 160.044C44.0188 138.154 34.9644 109.889 33.3036 74.9985C33.2163 73.1465 34.6407 71.573 36.4882 71.4714V71.4702C44.1967 71.0194 52.04 70.026 59.7507 68.4945C59.6413 64.8624 58.7794 60.7606 62.269 60.0103L62.2668 60.0037C77.6638 56.6522 95.935 50.4112 106.724 39.7844C108.039 38.4915 110.143 38.4948 111.454 39.7844C122.214 50.388 140.543 56.6721 155.91 60.0037C159.392 60.7573 158.542 64.8137 158.427 68.4945C166.043 70.0072 174.087 71.0404 181.691 71.4702C183.569 71.5774 184.989 73.1642 184.872 75.0836C183.2 109.934 174.152 138.171 162.849 160.044C143.814 196.882 117.911 215.943 110.015 218.22C109.386 218.4 108.75 218.388 108.165 218.22Z" fill="white"/>
<path fill-rule="evenodd" clip-rule="evenodd" d="M109.089 214.98C97.1252 211.531 41.0354 166.461 36.6729 74.8372C48.0444 74.1709 60.3729 72.2902 71.9234 69.0846H146.256C157.806 72.2902 170.134 74.1709 181.506 74.8372C177.144 166.461 121.054 211.531 109.089 214.98Z" fill="url(#paint0_linear_1077_434)"/>
<path fill-rule="evenodd" clip-rule="evenodd" d="M108.706 206.962C99.343 203.686 55.2557 160.667 52.27 73.1621C58.7376 72.1842 65.2538 70.8305 71.5401 69.0858H145.872C152.159 70.8305 158.673 72.1842 165.141 73.1621C162.155 160.666 118.069 203.686 108.706 206.962Z" fill="white"/>
<path fill-rule="evenodd" clip-rule="evenodd" d="M109.089 200.59C87.1192 185.017 68.1276 123.487 65.1883 100.674C63.9938 91.4045 63.2169 73.9135 62.9805 63.3044C81.3644 59.3021 98.7482 52.3892 109.088 42.1867C119.426 52.3881 136.811 59.3021 155.197 63.3044C154.96 73.9135 154.183 91.4045 152.989 100.674C150.051 123.487 131.495 184.597 109.089 200.59Z" fill="url(#paint1_linear_1077_434)"/>
<path fill-rule="evenodd" clip-rule="evenodd" d="M109.089 164.284C133.324 164.284 153.092 144.517 153.092 120.281C153.092 96.0455 133.325 76.2782 109.089 76.2782C84.8532 76.2782 65.0869 96.0444 65.0869 120.281C65.0858 144.516 84.8532 164.284 109.089 164.284Z" fill="white"/>
<path fill-rule="evenodd" clip-rule="evenodd" d="M109.089 157.456C133.324 157.456 153.092 137.69 153.092 113.453C153.092 89.2177 133.325 69.4504 109.089 69.4504C84.8528 69.4504 65.0854 89.2177 65.0854 113.453C65.0854 137.69 84.8528 157.456 109.089 157.456Z" fill="#D0D0D0"/>
<path fill-rule="evenodd" clip-rule="evenodd" d="M109.089 149.449C132.832 149.449 152.199 130.083 152.199 106.339C152.199 82.5955 132.832 63.2292 109.089 63.2292C85.3457 63.2292 65.9795 82.5955 65.9795 106.339C65.9795 130.084 85.3446 149.449 109.089 149.449Z" fill="white"/>
<path fill-rule="evenodd" clip-rule="evenodd" d="M146.272 82.9103C143.341 78.2649 139.562 74.2085 135.151 70.9543C133.669 69.8603 132.114 68.857 130.497 67.9531C126.044 65.4635 121.114 63.7253 115.878 62.9121C113.664 62.5695 111.398 62.3905 109.088 62.3905C107.535 62.3905 106.003 62.4723 104.492 62.6292C102.022 62.8855 99.6147 63.3463 97.2831 63.9961C96.6511 64.1729 96.0256 64.3629 95.4068 64.5662C89.6929 66.4381 84.495 69.447 80.0805 73.33C76.4097 76.5566 73.2836 80.3876 70.8526 84.664C67.2183 91.0619 65.1387 98.4599 65.1387 106.342C65.1387 114.224 67.2183 121.62 70.8526 128.016C73.2847 132.293 76.4108 136.124 80.0805 139.352C84.495 143.233 89.6918 146.243 95.4068 148.115C96.0267 148.317 96.6522 148.508 97.2831 148.684C99.6147 149.333 102.021 149.796 104.492 150.053C106.002 150.21 107.535 150.292 109.088 150.292C111.398 150.292 113.664 150.112 115.878 149.769C121.114 148.956 126.044 147.218 130.497 144.727C132.114 143.822 133.669 142.821 135.151 141.726C139.562 138.473 143.341 134.415 146.272 129.77C150.555 122.989 153.038 114.955 153.038 106.343C153.038 97.7273 150.555 89.6917 146.272 82.9103ZM130.497 70.9078C132.126 71.8935 133.681 72.9908 135.151 74.1842C136.27 75.0914 137.339 76.056 138.357 77.0726C139.271 77.9865 140.145 78.9456 140.97 79.9423C140.841 79.897 140.711 79.8617 140.587 79.834C138.831 77.7577 137.031 75.9897 135.153 74.5013C134.514 73.9941 133.869 73.5212 133.209 73.077C132.326 72.4803 131.421 71.9399 130.497 71.4515C128.599 70.4504 126.613 69.6713 124.506 69.0879C123.83 68.3067 123.023 67.6293 122.107 67.0348C125.065 68.0161 127.877 69.3211 130.497 70.9078ZM115.878 71.7642C117.732 70.5962 120.842 69.6957 123.769 69.5918C126.153 70.2062 128.382 71.0681 130.496 72.2184C131.291 72.6504 132.067 73.1245 132.831 73.6383C133.618 74.1687 134.39 74.7444 135.151 75.3698C137.318 77.1467 139.386 79.3114 141.404 81.9192C143.063 85.1977 143.567 89.2984 142.663 92.0763C140.191 92.7692 137.682 93.4123 135.151 94.0399C133.853 94.3615 132.548 94.6808 131.241 95.0001C130.999 94.7361 130.749 94.4742 130.497 94.2178C126.905 90.5669 122.41 87.6674 117.69 85.938C117.463 83.4186 117.095 80.8484 116.555 78.4406C116.354 77.5456 116.128 76.6715 115.879 75.8317C115.545 74.7146 115.169 73.6582 114.742 72.6847C115.027 72.3664 115.413 72.057 115.878 71.7642ZM104.493 69.9056C108.147 70.2581 111.492 71.1686 114.043 72.7731C114.798 74.4549 115.403 76.4174 115.878 78.5113L115.895 78.5876C116.427 80.9501 116.79 83.4772 117.013 85.959C116.638 86.1425 116.259 86.3381 115.878 86.5458C111.765 88.7801 107.336 92.2841 104.493 95.2267C104.353 95.3714 104.216 95.5173 104.083 95.6598C101.84 95.0068 99.5727 94.4653 97.2842 94.0222C96.8168 93.9305 96.3461 93.8454 95.8765 93.7626L95.4079 93.6808C92.8156 93.241 90.1912 92.9194 87.5414 92.6962C85.8718 88.8409 85.2442 84.8684 85.1845 80.6086C86.8387 78.3213 88.8476 76.2295 91.1603 74.4206C92.4797 73.3886 93.8996 72.446 95.4079 71.6095C96.019 71.2714 96.6444 70.9509 97.2842 70.6471C97.9583 70.3288 98.6456 70.0316 99.3495 69.7553C101.099 69.7001 102.828 69.7454 104.493 69.9056ZM109.386 112.029C107.954 114.439 106.344 116.804 104.609 119.133L104.493 119.289C102.775 121.59 100.941 123.854 99.0456 126.096C98.4533 126.11 97.8666 126.111 97.2842 126.1C96.6522 126.087 96.0278 126.061 95.4079 126.017C91.062 125.722 86.9912 124.698 83.1027 123.064C81.917 120.983 80.9148 118.846 80.0816 116.656C79.8473 116.038 79.6252 115.418 79.4175 114.793C78.5346 112.13 77.8915 109.385 77.4705 106.569C78.2307 104.666 79.1114 102.922 80.0816 101.34C82.1623 97.9494 84.6707 95.2941 87.3724 93.3603C90.0763 93.5846 92.7582 93.9117 95.4079 94.367L95.7604 94.4289C96.2698 94.5173 96.7792 94.6112 97.2853 94.7095C99.4324 95.1283 101.553 95.6333 103.647 96.2322C103.925 97.0731 104.207 97.9118 104.493 98.7527C106.005 103.179 107.641 107.604 109.386 112.029ZM79.8208 77.0726L80.0816 76.8141C84.3811 72.5897 89.599 69.2968 95.4079 67.2624C96.0267 67.047 96.6533 66.8425 97.2842 66.6558C98.0069 66.4414 98.7362 66.247 99.4743 66.0702C98.5892 66.9199 98.4257 68.1542 98.3484 69.436C97.9892 69.5874 97.6356 69.7421 97.2842 69.9045C96.6444 70.1995 96.019 70.5134 95.4079 70.8426C93.746 71.7399 92.1869 72.762 90.7459 73.8902C88.3735 75.7444 86.3138 77.8914 84.6198 80.2385C83.0098 80.5523 81.4849 80.9865 80.0816 81.5545C77.8462 82.4606 75.9235 83.7037 74.4814 85.3391C74.4251 85.0054 74.3853 84.664 74.3555 84.317C74.3433 84.1667 74.3334 84.0187 74.3256 83.8673C75.9168 81.4109 77.76 79.1324 79.8208 77.0726ZM70.8537 90.4619C71.6692 88.5005 72.6306 86.6154 73.7267 84.8198C73.7731 85.2297 73.8361 85.6331 73.9234 86.0231L73.7665 86.2375C72.5853 87.8895 71.583 89.9536 70.8537 92.1747C69.8946 95.0985 69.4095 98.293 69.6228 101.167C68.9509 101.86 68.3376 102.698 67.784 103.637C68.0824 98.9958 69.1476 94.5626 70.8537 90.4619ZM77.2417 132.581C77.15 132.538 77.0605 132.493 76.9699 132.446C74.4671 129.371 72.3985 125.93 70.8526 122.215C68.8183 117.326 67.6945 111.964 67.6945 106.34C67.6945 105.956 67.7001 105.572 67.7111 105.19C67.8813 104.845 68.0581 104.51 68.2426 104.186V104.185C68.7277 103.336 69.2592 102.574 69.836 101.926C70.1587 102.284 70.499 102.621 70.8515 102.938C72.5488 104.469 74.571 105.56 76.7522 106.345C77.1765 109.305 77.8451 112.196 78.7766 115.004C79.1633 116.172 79.5987 117.327 80.0794 118.465C80.833 120.248 81.7004 121.996 82.6905 123.705C81.4606 126.892 80.6374 130.147 80.8087 133.568C80.5656 133.55 80.3225 133.52 80.0783 133.481C79.118 133.327 78.1589 133.014 77.2417 132.581ZM95.4079 145.417C89.599 143.383 84.3811 140.091 80.0816 135.866L79.8208 135.609C79.1766 134.965 78.5545 134.297 77.9545 133.611C78.6506 133.869 79.3655 134.057 80.0816 134.166C80.3799 134.21 80.6783 134.241 80.9766 134.256C82.5877 137.665 89.8443 142.655 94.6411 143.512C94.8057 144.196 95.0599 144.811 95.4079 145.355L95.4588 145.436L95.4079 145.417ZM126.73 143.794C123.34 145.394 119.696 146.547 115.878 147.178C113.668 147.544 111.401 147.735 109.088 147.735C107.535 147.735 106 147.648 104.492 147.481C102.016 147.207 99.6081 146.714 97.2831 146.025C97.0798 145.964 96.8754 145.902 96.6732 145.839L96.6334 145.8C96.0643 145.253 95.6599 144.564 95.4068 143.755C95.3903 143.7 95.3726 143.644 95.3571 143.588L95.4068 143.586C96.0488 143.554 96.6754 143.488 97.2831 143.389C99.9959 142.954 102.374 141.885 104.492 140.317C104.975 139.959 105.442 139.578 105.901 139.171C107.89 139.98 110.702 140.349 113.742 140.322C114.443 140.316 115.158 140.287 115.877 140.239C118.538 140.061 121.278 139.605 123.73 138.892C124.798 140.299 125.995 141.537 127.536 142.355C127.326 142.863 127.06 143.344 126.73 143.794ZM130.497 141.768C129.633 142.291 128.748 142.786 127.846 143.247C127.99 142.97 128.123 142.684 128.233 142.39C128.981 142.222 129.735 141.999 130.498 141.704C130.599 141.665 130.703 141.625 130.803 141.584C130.702 141.646 130.598 141.707 130.497 141.768ZM130.497 131.709C128.709 134.359 126.62 136.587 124.705 137.875C122.04 138.78 118.908 139.356 115.878 139.561C115.155 139.609 114.44 139.64 113.738 139.645C110.696 139.674 107.91 139.3 106.009 138.484C105.489 137.831 104.983 137.159 104.492 136.47C102.4 133.519 100.626 130.213 99.6003 126.48C101.296 124.473 102.941 122.452 104.492 120.411C104.714 120.119 104.934 119.827 105.151 119.537C106.842 117.263 108.42 114.953 109.832 112.595C111.823 112.757 113.846 112.841 115.878 112.857C119.434 112.886 123.016 112.707 126.509 112.37C127.968 114.107 129.305 115.993 130.497 118.052C130.606 118.242 130.716 118.431 130.821 118.623C131.958 120.667 132.956 122.883 133.789 125.295C132.992 127.526 131.829 129.735 130.497 131.709ZM135.151 125.238C134.928 125.247 134.705 125.251 134.484 125.251C133.625 122.731 132.593 120.423 131.411 118.295C131.116 117.764 130.811 117.245 130.497 116.736C129.489 115.101 128.388 113.579 127.205 112.153C128.647 109.004 129.749 105.89 130.497 102.669C131.025 100.39 131.38 98.0588 131.55 95.6201C132.755 95.3272 133.957 95.0333 135.151 94.7372C137.706 94.1051 140.24 93.4554 142.738 92.7581C143.881 93.5449 145.145 95.0543 146.272 97.0499C147.313 98.8931 148.237 101.151 148.837 103.635C149.067 107.386 148.736 110.904 147.853 114.192C147.446 115.713 146.918 117.184 146.272 118.607C145.666 119.95 144.955 121.251 144.14 122.507C141.206 124.204 138.019 125.127 135.151 125.238ZM143.643 129.132C144.543 126.964 144.915 124.875 144.716 122.862C145.285 121.983 145.804 121.084 146.273 120.163C147.221 118.313 147.967 116.381 148.507 114.364C149.328 111.308 149.68 108.058 149.562 104.614C149.818 104.335 150.137 103.912 150.375 103.357C150.445 104.342 150.483 105.337 150.483 106.34C150.483 112.868 148.967 119.043 146.272 124.535C145.493 126.127 144.615 127.663 143.643 129.132Z" fill="url(#paint2_linear_1077_434)"/>
<path d="M45.8458 17.4017C51.9433 13.8758 55.0894 12.338 61.5031 9.70734C61.1869 12.533 61.0295 13.9465 60.7133 16.7736C57.2639 18.2146 55.5587 19 52.1959 20.7009C52.0992 21.5629 52.0516 21.9946 51.9563 22.858C55.3161 21.1499 57.0199 20.3601 60.4678 18.9119C60.153 21.7405 59.9957 23.1554 59.6809 25.9869C56.2416 27.4596 54.5408 28.2609 51.1896 29.9936C50.7304 34.2847 50.5009 36.4317 50.0431 40.7287C47.1886 42.2404 45.7794 43.0446 43 44.7469C44.132 33.7924 44.7009 28.3245 45.8458 17.4017Z" fill="url(#paint3_linear_1077_434)"/>
<path d="M77.1512 4.43439C78.4853 5.69776 79.1553 6.33884 80.4952 7.63976C79.6404 14.8634 79.213 18.4788 78.3611 25.7154C76.6285 27.7802 75.7651 28.8284 74.0454 30.9538C69.9896 32.1464 67.9798 32.8265 64.0106 34.3584C62.7111 33.2394 62.0643 32.6893 60.7764 31.6064C61.5979 24.2441 62.0109 20.5681 62.8368 13.2203C64.5145 10.9332 65.3577 9.80555 67.0528 7.58056C71.0509 6.15258 73.0737 5.52306 77.1512 4.43439ZM70.9585 12.995C70.534 13.5423 70.3217 13.8166 69.8987 14.3681C69.415 18.5756 69.1739 20.6807 68.6916 24.8924C69.0136 25.1928 69.1739 25.3429 69.4958 25.6447C69.75 25.5595 69.8785 25.5176 70.1326 25.4339C70.5628 24.8823 70.778 24.608 71.2097 24.0593C71.6948 19.8577 71.9374 17.7569 72.4225 13.5596C72.0919 13.2506 71.9259 13.0975 71.5952 12.7914C71.3411 12.8723 71.214 12.9127 70.9585 12.995Z" fill="url(#paint4_linear_1077_434)"/>
<path d="M97.13 0.752563C98.4944 2.23108 99.1774 2.97899 100.545 4.49505C99.6726 11.5815 99.238 15.1276 98.3674 22.2285C96.5972 24.016 95.7136 24.9242 93.9492 26.7724C89.788 27.3095 87.7146 27.6618 83.5981 28.5382C82.251 27.2041 81.5796 26.5471 80.2383 25.2491C81.093 18.024 81.5219 14.4158 82.3795 7.20517C84.1223 5.19676 84.9958 4.20772 86.7472 2.25995C90.881 1.48749 92.9601 1.18572 97.13 0.752563ZM90.7756 8.31261C90.3395 8.79053 90.12 9.03021 89.684 9.51246C89.1859 13.6419 88.9375 15.7066 88.4394 19.8404C88.7715 20.1927 88.9375 20.3703 89.2696 20.724C89.5324 20.6807 89.6638 20.6591 89.9266 20.6172C90.3698 20.1349 90.5922 19.8953 91.0355 19.4188C91.5336 15.2951 91.7834 13.2347 92.2829 9.11684C91.9422 8.75443 91.7733 8.57395 91.4325 8.21443C91.1712 8.25197 91.0398 8.27218 90.7756 8.31261Z" fill="url(#paint5_linear_1077_434)"/>
<path d="M104.998 25.8266C105.941 18.2232 106.412 14.4258 107.356 6.83836C105.267 6.88889 104.222 6.93509 102.135 7.07082C102.47 4.35347 102.638 2.9948 102.974 0.280345C110.29 -0.145594 113.969 -0.0993888 121.276 0.50992C120.941 3.17817 120.775 4.5123 120.44 7.18199C118.354 7.02173 117.31 6.96253 115.221 6.886C114.278 14.4157 113.806 18.1842 112.863 25.7313C109.716 25.6735 108.142 25.6923 104.998 25.8266Z" fill="url(#paint6_linear_1077_434)"/>
<path d="M137.452 2.89945C138.791 4.80534 139.46 5.76696 140.794 7.70895C140.554 9.6004 140.435 10.5476 140.196 12.4405C138.895 13.6937 138.244 14.329 136.937 15.6155C137.866 17.3698 138.329 18.2506 139.253 20.0222C139.014 21.9165 138.894 22.8651 138.654 24.7609C136.919 25.994 136.048 26.6249 134.302 27.9186C128.619 26.8545 125.749 26.482 120.002 26.059C121.279 15.8942 121.917 10.819 123.19 0.68457C128.928 1.24912 131.79 1.69238 137.452 2.89945ZM128.647 20.2503C129.299 20.3427 129.624 20.3904 130.276 20.4914C130.712 20.1492 130.93 19.9789 131.366 19.6396C131.4 19.3768 131.418 19.2439 131.452 18.9812C131.113 18.522 130.943 18.2924 130.603 17.8347C129.952 17.7322 129.627 17.6831 128.975 17.5893C128.845 18.6534 128.778 19.1862 128.647 20.2503ZM130.156 8.30093C130.024 9.36361 129.958 9.89495 129.826 10.9576C130.478 11.0558 130.803 11.1078 131.454 11.2146C131.89 10.8825 132.106 10.7165 132.542 10.3887C132.577 10.126 132.594 9.99602 132.629 9.73324C132.291 9.26398 132.121 9.03008 131.783 8.56227C131.132 8.45398 130.807 8.402 130.156 8.30093Z" fill="url(#paint7_linear_1077_434)"/>
<path d="M143.166 4.25391C149.796 5.98509 153.073 7.07521 159.48 9.70159C159.163 12.2673 159.005 13.5509 158.688 16.1195C155.232 14.7291 153.483 14.0996 149.956 12.9676C149.855 13.7487 149.804 14.14 149.703 14.9211C153.232 16.0445 154.982 16.6711 158.44 18.0543C158.124 20.6244 157.965 21.9094 157.647 24.4824C154.181 23.1237 152.428 22.5086 148.893 21.4084C148.732 22.7165 148.651 23.3706 148.489 24.6788C152.025 25.7674 153.781 26.3753 157.25 27.7224C156.933 30.2954 156.774 31.5818 156.456 34.1562C150.001 31.6988 146.703 30.6924 140.041 29.1287C141.293 19.1632 141.918 14.1891 143.166 4.25391Z" fill="url(#paint8_linear_1077_434)"/>
<path d="M163.183 36.9371C164.062 29.7654 164.501 26.1847 165.374 19.0304C163.438 18.1222 162.464 17.6876 160.5 16.8631C160.815 14.3003 160.974 13.0181 161.288 10.4567C168.155 13.3935 171.517 15.1218 178.002 19.0968C177.706 21.6105 177.558 22.8681 177.26 25.3848C175.404 24.2643 174.466 23.7243 172.576 22.6891C171.723 29.7857 171.296 33.3376 170.435 40.4529C167.568 38.9498 166.115 38.2467 163.183 36.9371Z" fill="url(#paint9_linear_1077_434)"/>
<path d="M106.453 170.01L108.367 172.363L107.801 177.061L105.32 179.424H102.215L101.6 180.01L101.482 180.996H106.971L106.502 184.912H96.6289L97.4785 177.852L99.959 175.498H103.055L103.68 174.912L103.729 174.521L103.24 173.926H98.3086L98.7773 170.01H106.453ZM113.553 177.461H114.578L115.125 173.887L113.553 177.461ZM113.982 181.387H108.357L108.621 179.16L112.967 170.01H119.598L118.709 177.461H119.266L118.797 181.387H118.24L117.83 184.912H113.436L113.982 181.387Z" fill="white"/>
</g>
<defs>
<linearGradient id="paint0_linear_1077_434" x1="109.089" y1="214.98" x2="109.089" y2="69.0854" gradientUnits="userSpaceOnUse">
<stop offset="4.04912e-07" stop-color="#040749"/>
<stop offset="1" stop-color="#12112C"/>
</linearGradient>
<linearGradient id="paint1_linear_1077_434" x1="62.9806" y1="121.388" x2="155.198" y2="121.388" gradientUnits="userSpaceOnUse">
<stop offset="2.02456e-07" stop-color="#D10A52"/>
<stop offset="1" stop-color="#040749"/>
</linearGradient>
<linearGradient id="paint2_linear_1077_434" x1="65.1395" y1="106.34" x2="153.039" y2="106.34" gradientUnits="userSpaceOnUse">
<stop offset="2.02456e-07" stop-color="#D10A52"/>
<stop offset="1" stop-color="#040749"/>
</linearGradient>
<linearGradient id="paint3_linear_1077_434" x1="52.2504" y1="44.7467" x2="52.2504" y2="9.70839" gradientUnits="userSpaceOnUse">
<stop stop-color="#12112C"/>
<stop offset="1" stop-color="white"/>
</linearGradient>
<linearGradient id="paint4_linear_1077_434" x1="70.6363" y1="34.3589" x2="70.6363" y2="4.43458" gradientUnits="userSpaceOnUse">
<stop stop-color="#12112C"/>
<stop offset="1" stop-color="white"/>
</linearGradient>
<linearGradient id="paint5_linear_1077_434" x1="90.3924" y1="28.5379" x2="90.3924" y2="0.753156" gradientUnits="userSpaceOnUse">
<stop stop-color="#12112C"/>
<stop offset="1" stop-color="white"/>
</linearGradient>
<linearGradient id="paint6_linear_1077_434" x1="111.704" y1="25.8263" x2="111.704" y2="-0.000932889" gradientUnits="userSpaceOnUse">
<stop stop-color="#12112C"/>
<stop offset="1" stop-color="white"/>
</linearGradient>
<linearGradient id="paint7_linear_1077_434" x1="130.398" y1="27.9183" x2="130.398" y2="0.684354" gradientUnits="userSpaceOnUse">
<stop stop-color="#12112C"/>
<stop offset="1" stop-color="white"/>
</linearGradient>
<linearGradient id="paint8_linear_1077_434" x1="149.76" y1="34.1563" x2="149.76" y2="4.25382" gradientUnits="userSpaceOnUse">
<stop stop-color="#12112C"/>
<stop offset="1" stop-color="white"/>
</linearGradient>
<linearGradient id="paint9_linear_1077_434" x1="169.251" y1="40.4518" x2="169.251" y2="10.4576" gradientUnits="userSpaceOnUse">
<stop stop-color="#12112C"/>
<stop offset="1" stop-color="white"/>
</linearGradient>
<clipPath id="clip0_1077_434">
<rect width="221" height="221" fill="white"/>
</clipPath>
</defs>
</svg>
