<svg width="23" height="23" viewBox="0 0 23 23" fill="none" xmlns="http://www.w3.org/2000/svg">
<g clip-path="url(#clip0_165_15)">
<path d="M8.7836 20.1501H2.31147C1.03739 20.1501 0 19.1226 0 17.8585V5.94181C0 4.67773 1.03739 3.65015 2.31147 3.65015H4.16065C4.41584 3.65015 4.62295 3.85548 4.62295 4.10848C4.62295 4.36148 4.41584 4.56681 4.16065 4.56681H2.31147C1.54684 4.56681 0.924589 5.18373 0.924589 5.94181V17.8585C0.924589 18.6166 1.54684 19.2335 2.31147 19.2335H8.7836C9.03878 19.2335 9.24589 19.4388 9.24589 19.6918C9.24589 19.9448 9.03878 20.1501 8.7836 20.1501Z" fill="white"/>
<path d="M15.2559 9.15015C15.0007 9.15015 14.7936 8.94481 14.7936 8.69181V5.94181C14.7936 5.18373 14.1713 4.56681 13.4067 4.56681H11.5575C11.3023 4.56681 11.0952 4.36148 11.0952 4.10848C11.0952 3.85548 11.3023 3.65015 11.5575 3.65015H13.4067C14.6808 3.65015 15.7182 4.67773 15.7182 5.94181V8.69181C15.7182 8.94481 15.5111 9.15015 15.2559 9.15015Z" fill="white"/>
<path d="M10.6327 6.40015H5.08512C4.32049 6.40015 3.69824 5.78323 3.69824 5.02515V3.19181C3.69824 2.93881 3.90535 2.73348 4.16054 2.73348H5.59365C5.80908 1.68848 6.74199 0.900146 7.85889 0.900146C8.97579 0.900146 9.9087 1.68848 10.1241 2.73348H11.5572C11.8124 2.73348 12.0195 2.93881 12.0195 3.19181V5.02515C12.0195 5.78323 11.3973 6.40015 10.6327 6.40015ZM4.62283 3.65015V5.02515C4.62283 5.27723 4.82994 5.48348 5.08512 5.48348H10.6327C10.8878 5.48348 11.0949 5.27723 11.0949 5.02515V3.65015H9.70807C9.45288 3.65015 9.24577 3.44481 9.24577 3.19181C9.24577 2.43373 8.62352 1.81681 7.85889 1.81681C7.09426 1.81681 6.47201 2.43373 6.47201 3.19181C6.47201 3.44481 6.2649 3.65015 6.00971 3.65015H4.62283Z" fill="white"/>
<path d="M16.1802 22.9002C12.8665 22.9002 10.1704 20.2272 10.1704 16.9419C10.1704 13.6565 12.8665 10.9835 16.1802 10.9835C19.494 10.9835 22.1901 13.6565 22.1901 16.9419C22.1901 20.2272 19.494 22.9002 16.1802 22.9002ZM16.1802 11.9002C13.376 11.9002 11.095 14.1625 11.095 16.9419C11.095 19.7212 13.376 21.9835 16.1802 21.9835C18.9845 21.9835 21.2655 19.7212 21.2655 16.9419C21.2655 14.1625 18.9845 11.9002 16.1802 11.9002Z" fill="white"/>
<path d="M16.1801 20.1502C15.9249 20.1502 15.7178 19.9448 15.7178 19.6918V14.1919C15.7178 13.9389 15.9249 13.7335 16.1801 13.7335C16.4353 13.7335 16.6424 13.9389 16.6424 14.1919V19.6918C16.6424 19.9448 16.4353 20.1502 16.1801 20.1502Z" fill="white"/>
<path d="M18.9542 17.4002H13.4066C13.1514 17.4002 12.9443 17.1949 12.9443 16.9419C12.9443 16.6889 13.1514 16.4835 13.4066 16.4835H18.9542C19.2093 16.4835 19.4165 16.6889 19.4165 16.9419C19.4165 17.1949 19.2093 17.4002 18.9542 17.4002Z" fill="white"/>
<path d="M12.4821 9.15019H3.23622C2.98103 9.15019 2.77393 8.94485 2.77393 8.69185C2.77393 8.43885 2.98103 8.23352 3.23622 8.23352H12.4821C12.7373 8.23352 12.9444 8.43885 12.9444 8.69185C12.9444 8.94485 12.7373 9.15019 12.4821 9.15019Z" fill="white"/>
<path d="M9.70834 11.9002H3.23622C2.98103 11.9002 2.77393 11.6949 2.77393 11.4419C2.77393 11.1889 2.98103 10.9835 3.23622 10.9835H9.70834C9.96353 10.9835 10.1706 11.1889 10.1706 11.4419C10.1706 11.6949 9.96353 11.9002 9.70834 11.9002Z" fill="white"/>
<path d="M7.85917 14.6502H3.23622C2.98103 14.6502 2.77393 14.4448 2.77393 14.1919C2.77393 13.9389 2.98103 13.7335 3.23622 13.7335H7.85917C8.11435 13.7335 8.32146 13.9389 8.32146 14.1919C8.32146 14.4448 8.11435 14.6502 7.85917 14.6502Z" fill="white"/>
</g>
<defs>
<clipPath id="clip0_165_15">
<rect width="22.1901" height="22" fill="white" transform="translate(0 0.900146)"/>
</clipPath>
</defs>
</svg>
