<svg width="35" height="35" viewBox="0 0 35 35" fill="none" xmlns="http://www.w3.org/2000/svg">
<circle cx="17.5" cy="17.5" r="17.5" fill="#FFFFFB" fill-opacity="0.1"/>
<path d="M21.8716 27.0109H10.4384C9.08714 27.0109 7.98828 25.9121 7.98828 24.5609V13.1276C7.98828 11.7764 9.08714 10.6775 10.4384 10.6775H16.9715C17.4223 10.6775 17.7886 11.0438 17.7886 11.4946C17.7886 11.9454 17.4235 12.3105 16.9715 12.3105H10.4384C9.98754 12.3105 9.62126 12.6768 9.62126 13.1276V24.5609C9.62126 25.0117 9.98754 25.378 10.4384 25.378H21.8716C22.3224 25.378 22.6887 25.0117 22.6887 24.5609V18.0265C22.6887 17.5757 23.0538 17.2106 23.5058 17.2106C23.9566 17.2106 24.3229 17.5769 24.3229 18.0277V24.5609C24.3217 25.9121 23.2228 27.0109 21.8716 27.0109Z" fill="#9E094A"/>
<path d="M22.1088 10.005L15.6467 16.467C15.5891 16.5246 15.5512 16.5969 15.5352 16.6753L14.9582 19.5627C14.9313 19.6962 14.9729 19.8347 15.0697 19.9314C15.1469 20.0086 15.251 20.0515 15.3588 20.0515C15.3846 20.0515 15.4127 20.049 15.4385 20.0429L18.3259 19.4659C18.4055 19.45 18.4778 19.4108 18.5354 19.3545L24.9974 12.8924L22.1088 10.005Z" fill="#9E094A"/>
<path d="M26.9927 8.00814C26.1965 7.21187 24.9016 7.21187 24.1053 8.00814L22.9746 9.13885L25.862 12.0263L26.9927 10.8956C27.3786 10.5109 27.5906 9.9976 27.5906 9.45246C27.5906 8.90732 27.3786 8.39403 26.9927 8.00814Z" fill="#9E094A"/>
</svg>
