<svg width="17" height="17" viewBox="0 0 17 17" fill="none" xmlns="http://www.w3.org/2000/svg">
<g clip-path="url(#clip0_199_1178)">
<path d="M15.3988 1.60161C13.2627 -0.534544 9.78707 -0.534511 7.65091 1.60165C6.1918 3.06076 5.68499 5.21102 6.31678 7.16187L0.146904 13.3318C0.0535039 13.4252 0.000976562 13.5516 0.000976562 13.6839V16.5015C0.000976562 16.7768 0.223736 16.9995 0.499024 16.9995H3.31658C3.44886 16.9995 3.57533 16.947 3.66869 16.8536L4.37297 16.1488C4.48044 16.0414 4.53297 15.8906 4.51547 15.7393L4.42792 14.9825L5.47654 14.8838C5.71487 14.8614 5.9031 14.6732 5.92548 14.4348L6.02422 13.3862L6.78102 13.4742C6.92157 13.4932 7.06312 13.446 7.16963 13.3517C7.27565 13.2568 7.33644 13.1216 7.33644 12.9796V12.0523H8.24694C8.37922 12.0523 8.50569 11.9997 8.59906 11.9063L9.87629 10.646C11.8266 11.2783 13.9397 10.8097 15.3988 9.34956C17.535 7.21344 17.535 3.73777 15.3988 1.60161ZM13.9899 5.12347C13.4072 5.70615 12.4597 5.70615 11.877 5.12347C11.2944 4.54079 11.2944 3.59334 11.877 3.01065C12.4597 2.42797 13.4072 2.42797 13.9899 3.01065C14.5725 3.59334 14.5725 4.54079 13.9899 5.12347Z" fill="#9E094A"/>
</g>
<defs>
<clipPath id="clip0_199_1178">
<rect width="17" height="17" fill="white"/>
</clipPath>
</defs>
</svg>
