<svg width="21" height="22" viewBox="0 0 21 22" fill="none" xmlns="http://www.w3.org/2000/svg">
<g clip-path="url(#clip0_199_1148)">
<path d="M0.184853 4.37085L6.55371 11L0.184853 17.6292C0.0697222 17.3771 -0.000127792 17.0984 -0.000127792 16.8008V5.19924C-0.000127792 4.9016 0.0697222 4.62295 0.184853 4.37085Z" fill="#9E094A"/>
<path d="M1.84598 3.26562H19.1546C19.4387 3.26562 19.7047 3.3388 19.9453 3.45941L11.8052 11.9442C11.0855 12.6982 9.91506 12.6982 9.19532 11.9442L1.05524 3.45941C1.29588 3.3388 1.56186 3.26562 1.84598 3.26562Z" fill="#9E094A"/>
<path d="M20.815 4.37085C20.9302 4.62295 21 4.9016 21 5.19924V16.8008C21 17.0985 20.9302 17.3771 20.815 17.6292L14.4462 11L20.815 4.37085Z" fill="#9E094A"/>
<path d="M7.4241 11.9114L8.32534 12.8555C9.52459 14.1119 11.476 14.1119 12.6753 12.8555L13.5764 11.9114L19.9453 18.5406C19.7047 18.6612 19.4387 18.7343 19.1546 18.7343H1.84598C1.56186 18.7343 1.29588 18.6612 1.05524 18.5406L7.4241 11.9114Z" fill="#9E094A"/>
</g>
<defs>
<clipPath id="clip0_199_1148">
<rect width="21" height="22" fill="white" transform="matrix(-1 0 0 1 21 0)"/>
</clipPath>
</defs>
</svg>
