<svg width="22" height="20" viewBox="0 0 22 20" fill="none" xmlns="http://www.w3.org/2000/svg">
<g clip-path="url(#clip0_199_1161)">
<path d="M16.7256 13.2304C16.0069 12.5853 15.1096 12.5853 14.3954 13.2304C13.8506 13.7215 13.3059 14.2126 12.7702 14.712C12.6237 14.8494 12.5001 14.8785 12.3216 14.7869C11.9691 14.6121 11.5937 14.4706 11.2549 14.2792C9.67551 13.3761 8.35247 12.2149 7.1805 10.9081C6.5991 10.2589 6.08178 9.56385 5.72012 8.78143C5.64687 8.62328 5.66061 8.51924 5.80252 8.39022C6.34731 7.91162 6.87835 7.42052 7.41398 6.92943C8.16019 6.24689 8.16019 5.44782 7.4094 4.76112C6.98365 4.36991 6.55789 3.98703 6.13214 3.59582C5.69265 3.19628 5.25774 2.79259 4.81368 2.39721C4.09493 1.76046 3.19765 1.76046 2.48348 2.40138C1.93412 2.89247 1.40765 3.39605 0.849138 3.87882C0.331825 4.32413 0.0708793 4.86933 0.0159434 5.50609C-0.0710384 6.54238 0.208219 7.5204 0.601926 8.47346C1.40765 10.4462 2.63455 12.1983 4.1224 13.8047C6.13214 15.9772 8.53101 17.696 11.3373 18.9363C12.6008 19.4939 13.9101 19.9226 15.3339 19.9934C16.3136 20.0433 17.1651 19.8186 17.8472 19.1235C18.3142 18.6491 18.8406 18.2163 19.3351 17.7626C20.0675 17.0884 20.0721 16.2727 19.3442 15.6068C18.4744 14.8119 17.6 14.0212 16.7256 13.2304Z" fill="#9E094A"/>
<path d="M15.8512 9.91346L17.5405 9.65126C17.275 8.24041 16.5425 6.96273 15.43 5.94725C14.2535 4.87766 12.7656 4.20345 11.1267 3.99536L10.8887 5.53939C12.1568 5.7017 13.3104 6.22193 14.2215 7.05013C15.0821 7.83255 15.6452 8.82306 15.8512 9.91346Z" fill="#9E094A"/>
<path d="M18.493 3.23789C16.5428 1.46496 14.0752 0.34543 11.3513 0L11.1133 1.54403C13.4664 1.84368 15.5997 2.81339 17.2844 4.34077C18.8821 5.79324 19.9305 7.6286 20.3105 9.64708L21.9998 9.38489C21.5557 7.04595 20.3425 4.92342 18.493 3.23789Z" fill="#9E094A"/>
</g>
<defs>
<clipPath id="clip0_199_1161">
<rect width="22" height="20" fill="white"/>
</clipPath>
</defs>
</svg>
