<svg width="24" height="24" viewBox="0 0 24 24" fill="none" xmlns="http://www.w3.org/2000/svg">
<g clip-path="url(#clip0_199_1167)">
<path d="M11.9994 12C14.4093 12 16.363 9.55797 16.363 6.54552C16.363 3.533 15.7216 1.09094 11.9994 1.09094C8.27731 1.09094 7.63574 3.533 7.63574 6.54552C7.63574 9.55797 9.58948 12 11.9994 12Z" fill="#9E094A"/>
<path d="M2.87358 20.6985C2.8727 20.5009 2.87181 20.6428 2.87358 20.6985V20.6985Z" fill="#9E094A"/>
<path d="M21.1255 20.8528C21.1283 20.7987 21.1264 20.4775 21.1255 20.8528V20.8528Z" fill="#9E094A"/>
<path d="M21.1154 20.4616C21.0259 14.8153 20.2885 13.2064 14.6455 12.188C14.6455 12.188 13.8512 13.2002 11.9998 13.2002C10.1483 13.2002 9.35388 12.188 9.35388 12.188C3.77251 13.1953 2.99024 14.7803 2.88739 20.2782C2.87895 20.7271 2.87504 20.7507 2.87354 20.6986C2.87388 20.7962 2.87429 20.9769 2.87429 21.2918C2.87429 21.2918 4.21774 24.0001 11.9998 24.0001C19.7817 24.0001 21.1253 21.2918 21.1253 21.2918C21.1253 21.0895 21.1254 20.9487 21.1256 20.853C21.1241 20.8853 21.1211 20.8228 21.1154 20.4616Z" fill="#9E094A"/>
</g>
<defs>
<clipPath id="clip0_199_1167">
<rect width="24" height="24" fill="white"/>
</clipPath>
</defs>
</svg>
