<svg width="22" height="23" viewBox="0 0 22 23" fill="none" xmlns="http://www.w3.org/2000/svg">
<g clip-path="url(#clip0_199_1173)">
<path d="M0.643574 17.5647H17.4881C17.6392 17.5647 17.7852 17.5094 17.901 17.4087C18.0628 17.2671 21.7534 13.9479 21.9784 6.78296H3.88777C3.6636 13.2868 0.264701 16.3437 0.229379 16.3742C0.0223036 16.5572 -0.0538834 16.856 0.039277 17.1218C0.131793 17.387 0.372901 17.5647 0.643574 17.5647Z" fill="#9E094A"/>
<path d="M21.3553 2.73981H18.1325V2.06595C18.1325 1.68859 17.8489 1.39209 17.4879 1.39209C17.127 1.39209 16.8434 1.68859 16.8434 2.06595V2.73981H13.5776V2.06595C13.5776 1.68859 13.294 1.39209 12.933 1.39209C12.5721 1.39209 12.2885 1.68859 12.2885 2.06595V2.73981H9.06566V2.06595C9.06566 1.68859 8.78205 1.39209 8.4211 1.39209C8.06015 1.39209 7.77654 1.68859 7.77654 2.06595V2.73981H4.55374C4.19279 2.73981 3.90918 3.0363 3.90918 3.41367V5.43524H21.9998V3.41367C21.9998 3.0363 21.7162 2.73981 21.3553 2.73981Z" fill="#9E094A"/>
<path d="M18.7286 18.4419C18.3786 18.7466 17.9392 18.9125 17.4879 18.9125H3.90918V20.934C3.90918 21.3065 4.19747 21.6079 4.55374 21.6079H21.3553C21.7115 21.6079 21.9998 21.3065 21.9998 20.934V13.3802C20.7571 16.5676 19.023 18.1843 18.7286 18.4419Z" fill="#9E094A"/>
</g>
<defs>
<clipPath id="clip0_199_1173">
<rect width="22" height="23" fill="white"/>
</clipPath>
</defs>
</svg>
