<svg width="37" height="37" viewBox="0 0 37 37" fill="none" xmlns="http://www.w3.org/2000/svg">
<circle cx="18.5" cy="18.5" r="18.5" fill="#FFFFFB" fill-opacity="0.09"/>
<g clip-path="url(#clip0_1020_76)">
<path d="M8.18485 11.3708L14.5537 18L8.18485 24.6292C8.06972 24.3771 7.99987 24.0984 7.99987 23.8008V12.1992C7.99987 11.9016 8.06972 11.6229 8.18485 11.3708Z" fill="#9E094A"/>
<path d="M9.84598 10.2656H27.1546C27.4387 10.2656 27.7047 10.3388 27.9453 10.4594L19.8052 18.9442C19.0855 19.6982 17.9151 19.6982 17.1953 18.9442L9.05524 10.4594C9.29588 10.3388 9.56186 10.2656 9.84598 10.2656Z" fill="#9E094A"/>
<path d="M28.815 11.3708C28.9302 11.6229 29 11.9016 29 12.1992V23.8008C29 24.0985 28.9302 24.3771 28.815 24.6292L22.4462 18L28.815 11.3708Z" fill="#9E094A"/>
<path d="M15.4241 18.9114L16.3253 19.8555C17.5246 21.1119 19.476 21.1119 20.6753 19.8555L21.5764 18.9114L27.9453 25.5406C27.7047 25.6612 27.4387 25.7343 27.1546 25.7343H9.84598C9.56186 25.7343 9.29588 25.6612 9.05524 25.5406L15.4241 18.9114Z" fill="#9E094A"/>
</g>
<defs>
<clipPath id="clip0_1020_76">
<rect width="21" height="22" fill="white" transform="matrix(-1 0 0 1 29 7)"/>
</clipPath>
</defs>
</svg>
