<svg width="57" height="57" viewBox="0 0 57 57" fill="none" xmlns="http://www.w3.org/2000/svg">
<g clip-path="url(#clip0_199_1367)">
<path d="M49.7845 7.21558H7.52588V49.4742H49.7845V7.21558Z" fill="#ECEFF1"/>
<path d="M28.6553 32.7892L49.7846 49.4743V16.5337L28.6553 32.7892Z" fill="#CFD8DC"/>
<path d="M51.5454 7.21558H49.7846L28.6553 23.9007L7.52601 7.21558H5.76524C2.84939 7.21558 0.48291 9.58206 0.48291 12.4979V44.1919C0.48291 47.1077 2.84939 49.4742 5.76524 49.4742H7.52601V16.5336L28.6553 32.7856L49.7846 16.5301V49.4742H51.5454C54.4613 49.4742 56.8277 47.1077 56.8277 44.1919V12.4979C56.8277 9.58206 54.4613 7.21558 51.5454 7.21558Z" fill="#F44336"/>
</g>
<defs>
<clipPath id="clip0_199_1367">
<rect width="56.3448" height="56.3448" fill="white" transform="translate(0.48291 0.172363)"/>
</clipPath>
</defs>
</svg>
