<svg width="55" height="44" viewBox="0 0 55 44" fill="none" xmlns="http://www.w3.org/2000/svg">
<path d="M54.5171 5.84324C52.5192 6.71139 50.3904 7.28683 48.1709 7.56624C50.4542 6.21578 52.1969 4.09362 53.0162 1.53573C50.8874 2.79305 48.5369 3.68117 46.032 4.17678C44.0107 2.04465 41.1297 0.724121 37.9869 0.724121C31.8892 0.724121 26.9801 5.62703 26.9801 11.6376C26.9801 12.5024 27.054 13.334 27.2353 14.1256C18.0787 13.6832 9.97644 9.33581 4.53351 2.71322C3.58327 4.34642 3.02588 6.21578 3.02588 8.22816C3.02588 12.0068 4.99017 15.3563 7.91813 17.2955C6.14859 17.2623 4.41263 16.7534 2.94193 15.9517C2.94193 15.985 2.94193 16.0282 2.94193 16.0715C2.94193 21.3735 6.75971 25.7775 11.7661 26.792C10.8696 27.0348 9.89249 27.1513 8.87845 27.1513C8.17332 27.1513 7.46148 27.1113 6.79328 26.965C8.22033 31.2858 12.2698 34.4624 17.0848 34.5655C13.3376 37.4693 8.57961 39.2189 3.42881 39.2189C2.52557 39.2189 1.65927 39.179 0.792969 39.0692C5.67179 42.186 11.4539 43.9655 17.6892 43.9655C37.9566 43.9655 49.0372 27.3342 49.0372 12.9182C49.0372 12.4359 49.0205 11.9702 48.9969 11.5079C51.1828 9.97112 53.0195 8.05187 54.5171 5.84324Z" fill="#03A9F4"/>
</svg>
