<svg width="58" height="36" viewBox="0 0 58 36" fill="none" xmlns="http://www.w3.org/2000/svg">
<path d="M48.0158 20.5017C47.0837 19.3093 47.3503 18.7788 48.0158 17.7129C48.0278 17.7007 55.7226 6.93008 56.5154 3.2774L56.5202 3.27497C56.9142 1.94384 56.5202 0.965576 54.6151 0.965576H48.3113C46.7065 0.965576 45.9666 1.80513 45.5702 2.74446C45.5702 2.74446 42.3606 10.5268 37.8201 15.5714C36.3546 17.0291 35.6772 17.4963 34.8772 17.4963C34.4832 17.4963 33.8706 17.0291 33.8706 15.698V3.27497C33.8706 1.67859 33.4213 0.965576 32.0928 0.965576H22.1806C21.174 0.965576 20.5758 1.71023 20.5758 2.40377C20.5758 3.91741 22.846 4.2654 23.0815 8.52402V17.764C23.0815 19.7887 22.7187 20.161 21.9139 20.161C19.771 20.161 14.5698 12.347 11.4876 3.40394C10.8654 1.66886 10.2576 0.968009 8.64076 0.968009H2.33451C0.535123 0.968009 0.172363 1.80757 0.172363 2.7469C0.172363 4.40654 2.31529 12.6585 10.1374 23.5606C15.3506 31.0022 22.6923 35.0345 29.3709 35.0345C33.3853 35.0345 33.8754 34.139 33.8754 32.5986C33.8754 25.4879 33.5126 24.8163 35.5234 24.8163C36.4555 24.8163 38.0603 25.2835 41.808 28.8729C46.0915 33.1291 46.7954 35.0345 49.193 35.0345H55.4968C57.2938 35.0345 58.2043 34.139 57.6806 32.3723C56.4818 28.6563 48.381 21.0127 48.0158 20.5017Z" fill="#4B729F"/>
</svg>
